<?xml version="1.0" encoding="utf-8"?>
<!-- Generator: Adobe Illustrator 23.0.3, SVG Export Plug-In . SVG Version: 6.00 Build 0)  -->
<svg version="1.1" id="Layer_1" xmlns="http://www.w3.org/2000/svg" xmlns:xlink="http://www.w3.org/1999/xlink" x="0px" y="0px"
	 viewBox="0 0 97 64.7" style="enable-background:new 0 0 97 64.7;" xml:space="preserve">
<style type="text/css">
	.st0{fill:#FFFFFF;}
</style>
<g>
	<path class="st0" d="M48.6,7.7c-5.6,0-10.1,4.6-10.2,10.2c0,3.3,3.1,10,10.2,17.9c7.1-7.9,10.2-14.5,10.2-17.9
		C58.7,12.3,54.2,7.7,48.6,7.7 M79.2,64.7l-3.6-1.4c-9.1-3.5-18.8-9.8-27-17.6c-8.3,7.8-18,14.2-27,17.6L18,64.7L0,0h7.2l15.4,55.4
		c7.2-3.3,14.6-8.4,21.1-14.6C39,35.7,31.3,25.9,31.4,17.9c0-4.6,1.8-8.9,5-12.1s7.5-5,12.1-5s8.9,1.8,12.1,5c3.2,3.2,5,7.5,5,12.1
		C65.7,26,58,35.7,53.3,40.8c6.5,6.2,14,11.3,21.1,14.6L89.8,0H97L79.2,64.7z"/>
</g>
</svg>
