<?xml version="1.0" encoding="UTF-8"?><!DOCTYPE svg PUBLIC "-//W3C//DTD SVG 1.1//EN" "http://www.w3.org/Graphics/SVG/1.1/DTD/svg11.dtd"><svg xmlns="http://www.w3.org/2000/svg" xmlns:xlink="http://www.w3.org/1999/xlink"><defs><style>.cls-1{opacity:0.9;isolation:isolate;}</style><style>.cls-1{fill:#181616;fill-rule:evenodd;}</style><style>.cls-1{fill:#231f20;fill-rule:evenodd;}</style><style>.cls-1{fill:#231f20;}</style></defs><symbol id="archive" viewBox="0 0 34 28"><title>archive</title><path d="M34,8H32V3a.94.94,0,0,0-1-1H3A.94.94,0,0,0,2,3V8H0V3A3,3,0,0,1,3,0H31a3,3,0,0,1,3,3Z"/><path d="M29,28H5a3,3,0,0,1-3-3V8H4V25a.94.94,0,0,0,1,1H29a.94.94,0,0,0,1-1V8h2V25A3,3,0,0,1,29,28Z"/><path d="M21,14H13a1,1,0,0,1,0-2h8a1,1,0,0,1,0,2Z"/><path d="M0,6H34V8H0Z"/></symbol><symbol id="arrow-down" viewBox="0 0 34 34"><title>arrow-down</title><path d="M17,34A17,17,0,1,1,34,17,17,17,0,0,1,17,34ZM17,2A15,15,0,1,0,32,17,15,15,0,0,0,17,2Z"/><path d="M17,26.4,7.3,16.7l1.4-1.4L17,23.6l8.3-8.3,1.4,1.4Z"/><path d="M16,8h2V25H16Z"/></symbol><symbol id="arrow-left" viewBox="0 0 34 34"><title>arrow-left</title><path d="M17,34A17,17,0,1,1,34,17,17,17,0,0,1,17,34ZM17,2A15,15,0,1,0,32,17,15,15,0,0,0,17,2Z"/><path d="M17.3,26.7,7.6,17l9.7-9.7,1.4,1.4L10.4,17l8.3,8.3Z"/><path d="M9,16H26v2H9Z"/></symbol><symbol id="arrow-right" viewBox="0 0 34 34"><title>arrow-right</title><path d="M17,34A17,17,0,1,1,34,17,17,17,0,0,1,17,34ZM17,2A15,15,0,1,0,32,17,15,15,0,0,0,17,2Z"/><path d="M16.7,26.7l-1.4-1.4L23.6,17,15.3,8.7l1.4-1.4L26.4,17Z"/><path d="M8,16H25v2H8Z"/></symbol><symbol id="arrow-up" viewBox="0 0 34 34"><title>arrow-up</title><path d="M17,34A17,17,0,1,1,34,17,17,17,0,0,1,17,34ZM17,2A15,15,0,1,0,32,17,15,15,0,0,0,17,2Z"/><path d="M25.3,18.7,17,10.4,8.7,18.7,7.3,17.3,17,7.6l9.7,9.7Z"/><path d="M16,9h2V26H16Z"/></symbol><symbol id="bell" viewBox="0 0 34 32"><title>bell</title><path d="M34,28c-6.5,0-7.4-6.3-8.2-11.9C24.9,9.9,24.1,4,17,4S9.1,9.9,8.2,16.1C7.4,21.7,6.5,28,0,28V26c4.6,0,5.3-3.9,6.2-10.1S8.2,2,17,2s9.9,7.7,10.8,13.9S29.4,26,34,26Z"/><path d="M17,32a5,5,0,0,1-5-5h2a3,3,0,0,0,6,0h2A5,5,0,0,1,17,32Z"/><path d="M0,26H34v2H0Z"/><path d="M19,2c0,1.1-.9,1.5-2,1.5S15,3.1,15,2a2,2,0,0,1,4,0Z"/></symbol><symbol id="calendar" viewBox="0 0 30 30"><title>calendar</title><path d="M27,30H3a3,3,0,0,1-3-3V5A2.74,2.74,0,0,1,2.5,2H4V4H2.5C2.3,4,2,4.4,2,5V27a.94.94,0,0,0,1,1H27a.94.94,0,0,0,1-1V5c0-.6-.3-1-.5-1H26V2h1.5A2.74,2.74,0,0,1,30,5V27A3,3,0,0,1,27,30Z"/><path d="M7,6A.94.94,0,0,1,6,5V1A.94.94,0,0,1,7,0,.94.94,0,0,1,8,1V5A.94.94,0,0,1,7,6Z"/><path d="M23,6a.94.94,0,0,1-1-1V1a1,1,0,0,1,2,0V5A.94.94,0,0,1,23,6Z"/><path d="M10,2H20V4H10Z"/><path d="M2,8H28v2H2Z"/><path d="M24,12h2v2H24Z"/><path d="M20,12h2v2H20Z"/><path d="M16,12h2v2H16Z"/><path d="M12,12h2v2H12Z"/><path d="M8,12h2v2H8Z"/><path d="M24,16h2v2H24Z"/><path d="M20,16h2v2H20Z"/><path d="M16,16h2v2H16Z"/><path d="M12,16h2v2H12Z"/><path d="M8,16h2v2H8Z"/><path d="M4,16H6v2H4Z"/><path d="M24,20h2v2H24Z"/><path d="M20,20h2v2H20Z"/><path d="M16,20h2v2H16Z"/><path d="M12,20h2v2H12Z"/><path d="M8,20h2v2H8Z"/><path d="M4,20H6v2H4Z"/><path d="M20,24h2v2H20Z"/><path d="M16,24h2v2H16Z"/><path d="M12,24h2v2H12Z"/><path d="M8,24h2v2H8Z"/><path d="M4,24H6v2H4Z"/></symbol><symbol id="camera" viewBox="0 0 34 27.9"><title>camera</title><path d="M31,27.9H3a3,3,0,0,1-3-3V6.9a3,3,0,0,1,3-3H9a1.14,1.14,0,0,0,.6-.3l1.1-2.2A2.74,2.74,0,0,1,13,0h8a2.74,2.74,0,0,1,2.3,1.4l1.1,2.2a.71.71,0,0,0,.6.3h6a3,3,0,0,1,3,3v18A3,3,0,0,1,31,27.9ZM3,5.9a.94.94,0,0,0-1,1v18a.94.94,0,0,0,1,1H31a.94.94,0,0,0,1-1V6.9a.94.94,0,0,0-1-1H25a2.74,2.74,0,0,1-2.3-1.4L21.6,2.3a.82.82,0,0,0-.6-.4H13a1.14,1.14,0,0,0-.6.3L11.3,4.4A2.64,2.64,0,0,1,9,5.9Z"/><path d="M17,23.9a9,9,0,1,1,9-9A9,9,0,0,1,17,23.9Zm0-16a7,7,0,1,0,7,7A7,7,0,0,0,17,7.9Z"/><circle cx="27" cy="7.9" r="1"/><path d="M4,1.9H8v1H4Z"/><path d="M17,10.9v-1a5,5,0,0,0-5,5h1A4,4,0,0,1,17,10.9Z"/></symbol><symbol id="cart" viewBox="0 0 34 32"><title>cart</title><path d="M29,26H7a1.23,1.23,0,0,1-.8-.4.94.94,0,0,1-.1-.9L8,19.9,6.1,2H0V0H7A1.06,1.06,0,0,1,8,.9l2,19a.9.9,0,0,1-.1.5L8.5,24H30Z"/><path d="M9.2,21l-.4-2L32,14.2V6H8V4H33a.94.94,0,0,1,1,1V15a1,1,0,0,1-.8,1Z"/><path d="M30,32a4,4,0,1,1,4-4A4,4,0,0,1,30,32Zm0-6a2,2,0,1,0,2,2A2,2,0,0,0,30,26Z"/><path d="M6,32a4,4,0,1,1,4-4A4,4,0,0,1,6,32Zm0-6a2,2,0,1,0,2,2A2,2,0,0,0,6,26Z"/></symbol><symbol id="chart" viewBox="0 0 32 26"><title>chart</title><path d="M10,24H8V14H4V24H2V12h8Z"/><path d="M20,24H18V8H14V24H12V6h8Z"/><path d="M30,24H28V2H24V24H22V0h8Z"/><path d="M0,24H32v2H0Z"/></symbol><symbol id="check" viewBox="0 0 34 34"><title>check</title><path d="M17,34A17,17,0,1,1,34,17,17,17,0,0,1,17,34ZM17,2A15,15,0,1,0,32,17,15,15,0,0,0,17,2Z"/><path d="M15,24.4,6.3,15.7l1.4-1.4L15,21.6,26.3,10.3l1.4,1.4Z"/></symbol><symbol id="chevron-down" viewBox="0 0 19.4 11.1"><title>chevron-down</title><path d="M9.7,11.1,0,1.4,1.4,0,9.7,8.3,18,0l1.4,1.4Z"/></symbol><symbol id="chevron-left" viewBox="0 0 11.1 19.4"><title>chevron-left</title><path d="M9.7,19.4,0,9.7,9.7,0l1.4,1.4L2.8,9.7,11.1,18Z"/></symbol><symbol id="chevron-right" viewBox="0 0 11.1 19.4"><title>chevron-right</title><path d="M1.4,19.4,0,18,8.3,9.7,0,1.4,1.4,0l9.7,9.7Z"/></symbol><symbol id="chevron-up" viewBox="0 0 19.4 11.1"><title>chevron-up</title><path d="M18,11.1,9.7,2.8,1.4,11.1,0,9.7,9.7,0l9.7,9.7Z"/></symbol><symbol id="clock" viewBox="0 0 34 34"><title>clock</title><path d="M17,34A17,17,0,1,1,34,17,17,17,0,0,1,17,34ZM17,2A15,15,0,1,0,32,17,15,15,0,0,0,17,2Z"/><path d="M22.3,25.7,16,19.4V8h2V18.6l5.7,5.7Z"/></symbol><symbol id="close" viewBox="0 0 27.44 27.44"><title>close</title><path d="M26,0l1.42,1.41-26,26L0,26Z"/><path d="M1.41,0l26,26L26,27.44,0,1.42Z"/></symbol><symbol id="comment" viewBox="0 0 34 32"><title>comment</title><path d="M7,32H5l1.2-1.6a10,10,0,0,0,1.6-4.2A12.79,12.79,0,0,1,0,14C0,5.4,6.5,0,17,0S34,5.4,34,14c0,8.8-6.4,14-17,14h-.7A11.49,11.49,0,0,1,7,32ZM17,2C7.6,2,2,6.5,2,14A10.82,10.82,0,0,0,9.2,24.7l.7.3-.1.8A12.93,12.93,0,0,1,8.7,30,9.09,9.09,0,0,0,15,26.5l.3-.4H17c13.5,0,15-8.4,15-12C32,6.5,26.4,2,17,2Z"/></symbol><symbol id="credit-card" viewBox="0 0 34 26"><title>credit-card</title><path d="M31,26H3a3,3,0,0,1-3-3V3A3,3,0,0,1,3,0H31a3,3,0,0,1,3,3V23A3,3,0,0,1,31,26ZM3,2A.94.94,0,0,0,2,3V23a.94.94,0,0,0,1,1H31a.94.94,0,0,0,1-1V3a.94.94,0,0,0-1-1Z"/><path d="M1,4H33v6H1Z"/><path d="M4,14H5v2H4Z"/><path d="M6,14H7v2H6Z"/><path d="M8,14H9v2H8Z"/><path d="M11,14h1v2H11Z"/><path d="M13,14h1v2H13Z"/><path d="M15,14h1v2H15Z"/><path d="M18,14h1v2H18Z"/><path d="M20,14h1v2H20Z"/><path d="M22,14h1v2H22Z"/><path d="M25,14h1v2H25Z"/><path d="M27,14h1v2H27Z"/><path d="M29,14h1v2H29Z"/></symbol><symbol id="envelope" viewBox="0 0 34 26"><title>envelope</title><path class="cls-1" d="M23.8,12.24l10,10-1.42,1.42-10-10Z"/><path class="cls-1" d="M10.28,12.29l1.41,1.41-9.9,9.9L.38,22.19Z"/><path d="M17,17.9a5.76,5.76,0,0,1-4.2-1.8L.3,3.7,1.7,2.3,14.2,14.8a4,4,0,0,0,5.7,0L32.4,2.3l1.4,1.4L21.2,16.2A6.07,6.07,0,0,1,17,17.9Z"/><path d="M31,26H3a3,3,0,0,1-3-3V3A3,3,0,0,1,3,0H31a3,3,0,0,1,3,3V23A3,3,0,0,1,31,26ZM3,2A.94.94,0,0,0,2,3V23a.94.94,0,0,0,1,1H31a.94.94,0,0,0,1-1V3a.94.94,0,0,0-1-1Z"/></symbol><symbol id="exclamation" viewBox="0 0 34 34"><title>exclamation</title><path d="M17,34A17,17,0,1,1,34,17,17,17,0,0,1,17,34ZM17,2A15,15,0,1,0,32,17,15,15,0,0,0,17,2Z"/><path d="M16,24h2v2H16Z"/><path d="M17.6,22H16.4L16,14V8h2v6Z"/></symbol><symbol id="external-link" viewBox="0 0 28 28"><title>external-link</title><path d="M26.29.3,27.7,1.71l-15,15L11.3,15.29Z"/><path d="M28,10H26V2H18V0H28Z"/><path d="M23,28H3a3,3,0,0,1-3-3V5A3,3,0,0,1,3,2H14V4H3A.94.94,0,0,0,2,5V25a.94.94,0,0,0,1,1H23a.94.94,0,0,0,1-1V14h2V25A3,3,0,0,1,23,28Z"/></symbol><symbol id="eye" viewBox="0 0 33.95 22"><title>eye</title><path d="M17,22C5.47,22,.28,11.9.08,11.4a1.27,1.27,0,0,1,0-.9C.28,10.1,5.47,0,17,0S33.68,10.1,33.88,10.6a1.53,1.53,0,0,1,0,.9C33.68,11.9,28.47,22,17,22ZM2.08,11C3.18,12.9,8,20,17,20s13.71-7.1,14.91-9C30.78,9.1,26,2,17,2S3.28,9.1,2.08,11Z"/><path d="M17,20a9,9,0,1,1,9-9A9,9,0,0,1,17,20ZM17,4a7,7,0,1,0,7,7A7,7,0,0,0,17,4Z"/><path d="M17,16a5,5,0,0,1-5-5,1,1,0,0,1,2,0,3,3,0,0,0,6,0,2.94,2.94,0,0,0-3-3,.94.94,0,0,1-1-1,.94.94,0,0,1,1-1,5,5,0,0,1,0,10Z"/></symbol><symbol id="facebook" viewBox="0 0 15 30"><title>facebook</title><path d="M10,10V7c0-1.3.3-2,2.4-2H15V0H11C6,0,4,3.3,4,7v3H0v5H4V30h6V15h4.4l.6-5Z"/></symbol><symbol id="gear" viewBox="0 0 37.9 38"><title>gear</title><path d="M19,28a9,9,0,1,1,9-9A9,9,0,0,1,19,28Zm0-16a7,7,0,1,0,7,7A7,7,0,0,0,19,12Z"/><path d="M21.7,38H16.3l-1.5-4.6a14.76,14.76,0,0,1-2.9-1.2L7.5,34.4,3.7,30.6l2.2-4.4a14.76,14.76,0,0,1-1.2-2.9L0,21.7V16.3l4.6-1.5a14.76,14.76,0,0,1,1.2-2.9L3.6,7.5,7.4,3.7l4.4,2.2a14.76,14.76,0,0,1,2.9-1.2L16.3,0h5.4l1.5,4.6a14.76,14.76,0,0,1,2.9,1.2l4.4-2.2,3.8,3.8-2.2,4.4a14.76,14.76,0,0,1,1.2,2.9l4.6,1.5v5.4l-4.6,1.5A14.76,14.76,0,0,1,32.1,26l2.2,4.4-3.8,3.8L26.1,32a14.76,14.76,0,0,1-2.9,1.2Zm-4-2h2.6l1.4-4.3.5-.1a14.34,14.34,0,0,0,3.4-1.4l.5-.3,4,2,1.8-1.8-2-4,.3-.5a12.81,12.81,0,0,0,1.4-3.4l.1-.5L36,20.3V17.7l-4.3-1.4-.1-.5a14.34,14.34,0,0,0-1.4-3.4l-.3-.5,2-4L30.1,6.1l-4,2-.5-.3a14.34,14.34,0,0,0-3.4-1.4l-.5-.1L20.3,2H17.7L16.3,6.3l-.5.1a14.34,14.34,0,0,0-3.4,1.4l-.5.3-4-2L6.1,7.9l2,4-.3.5a12.81,12.81,0,0,0-1.4,3.4l-.1.5L2,17.7v2.6l4.3,1.4.1.5a14.34,14.34,0,0,0,1.4,3.4l.3.5-2,4,1.8,1.8,4-2,.5.3a14.34,14.34,0,0,0,3.4,1.4l.5.1Z"/></symbol><symbol id="github" viewBox="0 0 29.9 29.22"><title>github</title><path class="cls-1" d="M15,0a15,15,0,0,0-4.7,29.2c.8.1,1-.3,1-.7V25.9c-4.2.9-5.1-2-5.1-2a4.24,4.24,0,0,0-1.7-2.2c-1.4-.9.1-.9.1-.9a3.15,3.15,0,0,1,2.3,1.5,3.18,3.18,0,0,0,4.4,1.2,2.74,2.74,0,0,1,1-2c-3.3-.4-6.8-1.7-6.8-7.4a6,6,0,0,1,1.5-4,5.21,5.21,0,0,1,.1-4s1.3-.4,4.1,1.5A15.83,15.83,0,0,1,15,7.1a15.83,15.83,0,0,1,3.8.5c2.9-1.9,4.1-1.5,4.1-1.5a5.21,5.21,0,0,1,.1,4,5.51,5.51,0,0,1,1.5,4c0,5.8-3.5,7-6.8,7.4a3.85,3.85,0,0,1,1,2.8v4.1a.72.72,0,0,0,1,.7A14.9,14.9,0,0,0,29.9,14.9,14.81,14.81,0,0,0,15,0Z"/></symbol><symbol id="heart" viewBox="0 0 34 29.7"><title>heart</title><path d="M17,29.7l-.6-.5C3.5,18.7,0,15,0,9A9,9,0,0,1,9,0c4.1,0,6.4,2.3,8,4.1C18.6,2.3,20.9,0,25,0a9,9,0,0,1,9,9c0,6-3.5,9.7-16.4,20.2ZM9,2A7,7,0,0,0,2,9c0,5.1,3.2,8.5,15,18.1C28.8,17.5,32,14.1,32,9a7,7,0,0,0-7-7c-3.5,0-5.4,2.1-6.9,3.8L17,7.1,15.9,5.8C14.4,4.1,12.5,2,9,2Z"/></symbol><symbol id="image" viewBox="0 0 34 26"><title>image</title><path d="M31,26H3a3,3,0,0,1-3-3V3A3,3,0,0,1,3,0H31a3,3,0,0,1,3,3V23A3,3,0,0,1,31,26ZM3,2A.94.94,0,0,0,2,3V23a.94.94,0,0,0,1,1H31a.94.94,0,0,0,1-1V3a.94.94,0,0,0-1-1Z"/><path d="M22,12a4,4,0,1,1,4-4A4,4,0,0,1,22,12Zm0-6a2,2,0,1,0,2,2A2,2,0,0,0,22,6Z"/><path d="M27.3,25.7,11,10.4,1.7,19,.3,17.6,11,7.6,28.7,24.3Z"/><path d="M32.4,20.7,27,16.3,22.5,20l-1.3-1.6L27,13.7l6.6,5.4Z"/></symbol><symbol id="instagram" viewBox="0 0 26 26"><title>instagram</title><path class="cls-1" d="M23,11H20.7a6.45,6.45,0,0,1,.3,2A8,8,0,0,1,5,13a6.45,6.45,0,0,1,.3-2H3V22a.94.94,0,0,0,1,1H22a.94.94,0,0,0,1-1Zm0-7a.94.94,0,0,0-1-1H19a.94.94,0,0,0-1,1V7a.94.94,0,0,0,1,1h3a.94.94,0,0,0,1-1ZM13,8a5,5,0,1,0,5,5,5,5,0,0,0-5-5M23,26H3a3,3,0,0,1-3-3V3A3,3,0,0,1,3,0H23a3,3,0,0,1,3,3V23a3,3,0,0,1-3,3"/></symbol><symbol id="like" viewBox="0 0 32 30"><title>like</title><path d="M32,15.2c0-2.1-1.7-3.2-4-3.2H21.3A18.76,18.76,0,0,0,22,7c0-5.8-1.6-7-3-7a4.62,4.62,0,0,0-2.5.6,1.16,1.16,0,0,0-.5.7L15,6.7c-1.1,2.8-3.8,5.3-6,7V28a6.22,6.22,0,0,1,2.6.9A8.5,8.5,0,0,0,15,30h9.5A3.42,3.42,0,0,0,28,27a1.48,1.48,0,0,0-.1-.7A3.1,3.1,0,0,0,30,23.5a4.15,4.15,0,0,0-.3-1.6,3,3,0,0,0,1.5-2.4,3.49,3.49,0,0,0-.6-1.7A3.42,3.42,0,0,0,32,15.2Zm-2.1,0c0,1.3-1.3,1.4-1.5,2s.8.9.8,2.1-1.5,1.2-1.7,1.9.5,1,.5,2.2v.2c-.2,1-1.7,1.1-2,1.5s0,.7,0,1.8c0,.6-.7,1-1.5,1H15a6.22,6.22,0,0,1-2.6-.9A12.23,12.23,0,0,0,10,26V15.5c2.5-1.9,5.7-4.7,6.9-8.2V7.1l.9-5A4.48,4.48,0,0,1,19,2c.2,0,1,1.2,1,5a19.84,19.84,0,0,1-.8,5H19a1,1,0,0,0,0,2h9C29,14,29.9,14.5,29.9,15.2Z"/><path d="M8,30H2a2,2,0,0,1-2-2V14a2,2,0,0,1,2-2H8a2,2,0,0,1,2,2V28A2,2,0,0,1,8,30ZM2,14V28H8V14Z"/></symbol><symbol id="link" viewBox="0 0 29.8 29.8"><title>link</title><path d="M13.9,20.1c0,.2.1.5.1.8a4.91,4.91,0,0,1-1.5,3.6l-2,2A4.91,4.91,0,0,1,6.9,28a5.12,5.12,0,0,1-5.1-5.1,4.91,4.91,0,0,1,1.5-3.6l2-2a4.91,4.91,0,0,1,3.6-1.5,2.2,2.2,0,0,1,.8.1l1.5-1.5A5.87,5.87,0,0,0,8.9,14,6.8,6.8,0,0,0,4,16L2,18a6.8,6.8,0,0,0-2,4.9,6.91,6.91,0,0,0,6.9,6.9,6.8,6.8,0,0,0,4.9-2l2-2a6.8,6.8,0,0,0,2-4.9,5.87,5.87,0,0,0-.4-2.3Z"/><path d="M22.9,0A6.8,6.8,0,0,0,18,2L16,4a6.8,6.8,0,0,0-2,4.9,5.87,5.87,0,0,0,.4,2.3l1.5-1.5c0-.2-.1-.5-.1-.8a4.91,4.91,0,0,1,1.5-3.6l2-2a4.91,4.91,0,0,1,3.6-1.5A5.12,5.12,0,0,1,28,6.9a4.91,4.91,0,0,1-1.5,3.6l-2,2A4.91,4.91,0,0,1,20.9,14a2.2,2.2,0,0,1-.8-.1l-1.5,1.5a5.87,5.87,0,0,0,2.3.4,6.8,6.8,0,0,0,4.9-2l2-2a6.8,6.8,0,0,0,2-4.9A6.91,6.91,0,0,0,22.9,0Z"/><path d="M9.9,20.9a.91.91,0,0,1-.7-.3,1,1,0,0,1,0-1.4l10-10a1,1,0,0,1,1.4,1.4l-10,10A.91.91,0,0,1,9.9,20.9Z"/></symbol><symbol id="linkedin" viewBox="0 0 26 26"><title>linkedin</title><path class="cls-1" d="M24.1,0H1.9A1.84,1.84,0,0,0,0,1.9V24.1A2,2,0,0,0,1.9,26H24.1A1.84,1.84,0,0,0,26,24.1V1.9A1.9,1.9,0,0,0,24.1,0ZM8,22H4V10H8ZM6,8.4A2.43,2.43,0,0,1,3.6,6,2.43,2.43,0,0,1,6,3.6,2.43,2.43,0,0,1,8.4,6,2.43,2.43,0,0,1,6,8.4ZM22,22H18V16c0-1.6-.4-3.2-2-3.2s-2,1.6-2,3.2v6H10V10h4v1.4h.2a3.71,3.71,0,0,1,3.3-1.8C21.2,9.6,22,12,22,15Z"/></symbol><symbol id="location" viewBox="0 0 26 36.5"><title>location</title><path d="M13,36.5l-.8-.9C11.7,35.1,0,21.3,0,13a13,13,0,0,1,26,0c0,8.3-11.7,22.1-12.2,22.7ZM13,2A11,11,0,0,0,2,13c0,6.4,8.4,17.2,11,20.4,2.6-3.2,11-14,11-20.4A11,11,0,0,0,13,2Z"/><path d="M13,18a5,5,0,1,1,5-5A5,5,0,0,1,13,18Zm0-8a3,3,0,1,0,3,3A2.95,2.95,0,0,0,13,10Z"/></symbol><symbol id="lock" viewBox="0 0 22 30"><title>lock</title><path d="M20,13H18V9A7,7,0,0,0,4,9v4H2V9A9,9,0,0,1,20,9Z"/><path d="M19,30H3a3,3,0,0,1-3-3V15a3,3,0,0,1,3-3H19a3,3,0,0,1,3,3V27A3,3,0,0,1,19,30ZM3,14a.94.94,0,0,0-1,1V27a.94.94,0,0,0,1,1H19a.94.94,0,0,0,1-1V15a.94.94,0,0,0-1-1Z"/><circle cx="11" cy="18" r="2"/><path d="M11.5,18h-1l-1,6h3Z"/></symbol><symbol id="minus" viewBox="0 0 34 34"><title>minus</title><path d="M17,34A17,17,0,1,1,34,17,17,17,0,0,1,17,34ZM17,2A15,15,0,1,0,32,17,15,15,0,0,0,17,2Z"/><path d="M8,16H26v2H8Z"/></symbol><symbol id="paperclip" viewBox="0 0 32.35 29.62"><title>paperclip</title><path d="M5.92,29.62a5.72,5.72,0,0,1-4.19-1.79,6.08,6.08,0,0,1,0-8.5l17-17A8,8,0,1,1,30,13.62L17.23,26.43,15.83,25l12.7-12.7a6.1,6.1,0,0,0,0-8.5,6.1,6.1,0,0,0-8.5,0l-17,17a3.91,3.91,0,0,0-1.2,2.79A3.63,3.63,0,0,0,3,26.42a4,4,0,0,0,5.7,0l12.7-12.7a2,2,0,1,0-2.8-2.8l-8.51,8.41-1.39-1.4,8.5-8.5a4,4,0,1,1,5.69,5.69L10.12,27.83A5.75,5.75,0,0,1,5.92,29.62Z"/></symbol><symbol id="pencil" viewBox="0 0 28.5 28.4"><title>pencil</title><path d="M0,28.4l2.5-9.9L17.4,3.6,24.8,11,9.9,25.9Zm4.3-8.9L2.8,25.6l6.1-1.5L22,11,17.4,6.4Z"/><path d="M8.2,25.3a7,7,0,0,0-5.1-5.1l.5-1.9a8.94,8.94,0,0,1,6.5,6.5Z"/><path d="M19.7,7.29,21.11,8.7l-13,13L6.69,20.31Z"/><path d="M1.4,27l2.9-.7a3.06,3.06,0,0,0-2.2-2.2Z"/><path d="M25.4,10.4,18,3l3-3,.5.1A8.06,8.06,0,0,1,28.4,7l.1.5ZM20.8,3l4.6,4.6.9-.9a6,6,0,0,0-4.6-4.6Z"/></symbol><symbol id="pinterest" viewBox="0 0 30 30"><title>pinterest</title><path d="M15,0A15,15,0,0,0,9.5,29a15.58,15.58,0,0,1,.1-4.3c.3-1.2,1.8-7.5,1.8-7.5A5.91,5.91,0,0,1,11,15c0-2.1,1.2-3.6,2.7-3.6a1.89,1.89,0,0,1,1.9,2.1c0,1.3-.8,3.2-1.2,5a2.12,2.12,0,0,0,2.2,2.7c2.7,0,4.7-2.8,4.7-6.9A5.93,5.93,0,0,0,15,8.2a6.49,6.49,0,0,0-6.8,6.5,5.74,5.74,0,0,0,1.1,3.4.6.6,0,0,1,.1.4C9.3,19,9,20,9,20.2s-.2.3-.5.2c-1.9-.9-3-3.6-3-5.8,0-4.7,3.4-9.1,9.9-9.1,5.2,0,9.2,3.7,9.2,8.7,0,5.2-3.3,9.3-7.8,9.3a4,4,0,0,1-3.4-1.7s-.8,2.9-.9,3.6a15.71,15.71,0,0,1-1.9,3.9A13.08,13.08,0,0,0,15,30,15,15,0,0,0,15,0Z"/></symbol><symbol id="play" viewBox="0 0 34 34"><title>play</title><path d="M17,34A17,17,0,1,1,34,17,17,17,0,0,1,17,34ZM17,2A15,15,0,1,0,32,17,15,15,0,0,0,17,2Z"/><path d="M12,25.7V8.3L27,17Zm2-14V22.2l9-5.3Z"/></symbol><symbol id="plus" viewBox="0 0 34 34"><title>plus</title><path d="M17,34A17,17,0,1,1,34,17,17,17,0,0,1,17,34ZM17,2A15,15,0,1,0,32,17,15,15,0,0,0,17,2Z"/><path d="M8,16H26v2H8Z"/><path d="M16,8h2V26H16Z"/></symbol><symbol id="question" viewBox="0 0 34 34"><title>question</title><path d="M17,34A17,17,0,1,1,34,17,17,17,0,0,1,17,34ZM17,2A15,15,0,1,0,32,17,15,15,0,0,0,17,2Z"/><path d="M11.8,11.6A4.14,4.14,0,0,1,13,9.7a5.16,5.16,0,0,1,1.9-1.2,6.9,6.9,0,0,1,2.5-.4,6.45,6.45,0,0,1,2,.3,5.56,5.56,0,0,1,1.7.9,3.27,3.27,0,0,1,1.1,1.5,4.48,4.48,0,0,1,.4,2,4.87,4.87,0,0,1-.6,2.5,14,14,0,0,1-1.6,2l-1.3,1.3a2.76,2.76,0,0,0-.7.9,2,2,0,0,0-.3,1.1,5.76,5.76,0,0,0-.1,1.5H16.4a8.62,8.62,0,0,1,.1-1.7,8.8,8.8,0,0,1,.5-1.5,4.7,4.7,0,0,1,.9-1.2,18.37,18.37,0,0,0,1.4-1.4,7.89,7.89,0,0,0,1.2-1.5A3.74,3.74,0,0,0,21,13a3.19,3.19,0,0,0-.3-1.4,4.44,4.44,0,0,0-.8-1.1,3.46,3.46,0,0,0-1.2-.7,3.53,3.53,0,0,0-1.4-.3,3.42,3.42,0,0,0-1.8.4,3.25,3.25,0,0,0-1.3,1,5.3,5.3,0,0,0-.8,1.5A4.19,4.19,0,0,0,13,14H11.4A6.37,6.37,0,0,1,11.8,11.6ZM18,24v2H16V24Z"/></symbol><symbol id="redo" viewBox="0 0 26 26"><title>redo</title><path d="M13,26A13,13,0,0,1,13,0,12.51,12.51,0,0,1,24.9,8.7L23,9.4A10.35,10.35,0,0,0,13,2,11,11,0,1,0,23,17.6l1.8.8A13,13,0,0,1,13,26Z"/><path d="M26,10H18V8h6V2h2Z"/></symbol><symbol id="refresh" viewBox="0 0 30 25.9"><title>refresh</title><path d="M15,25.9A13,13,0,0,1,5.3,4.3L6.8,5.6A11,11,0,0,0,15,23.9a10.61,10.61,0,0,0,4.6-1l.8,1.8A12.53,12.53,0,0,1,15,25.9Z"/><path d="M24.7,21.6l-1.5-1.3A11,11,0,0,0,15,2a10.61,10.61,0,0,0-4.6,1L9.6,1.2A12.53,12.53,0,0,1,15,0,13,13,0,0,1,28,13,13.2,13.2,0,0,1,24.7,21.6Z"/><path d="M8,11.9H6v-6H0v-2H8Z"/><path d="M30,21.9H22v-8h2v6h6Z"/></symbol><symbol id="retweet" viewBox="0 0 37.6 23"><title>retweet</title><path d="M31.8,21.5h-2V3.5a.94.94,0,0,0-1-1h-17V.5h17a3,3,0,0,1,3,3Z"/><path d="M30.8,23,24,15.2l1.6-1.4L30.8,20,36,13.8l1.6,1.4Z"/><path d="M25.8,22.5H8.8a3,3,0,0,1-3-3V1.5h2v18a.94.94,0,0,0,1,1h17Z"/><path d="M12,9.2,6.8,3,1.6,9.2,0,7.8,6.8,0l6.8,7.8Z"/></symbol><symbol id="search" viewBox="0 0 31.66 31.66"><title>search</title><path d="M13,26A13,13,0,1,1,26,13,13,13,0,0,1,13,26ZM13,2A11,11,0,1,0,24,13,11,11,0,0,0,13,2Z"/><path d="M22.68,21.27l9,9-1.41,1.41-9-9Z"/></symbol><symbol id="share-apple" viewBox="0 0 26 34.4"><title>share-apple</title><path d="M18.3,8.1,13,2.8,7.7,8.1,6.3,6.7,13,0l6.7,6.7Z"/><path d="M12,1.4h2v21H12Z"/><path d="M23,34.4H3a3,3,0,0,1-3-3v-18a3,3,0,0,1,3-3h7v2H3a.94.94,0,0,0-1,1v18a.94.94,0,0,0,1,1H23a.94.94,0,0,0,1-1v-18a.94.94,0,0,0-1-1H16v-2h7a3,3,0,0,1,3,3v18A3,3,0,0,1,23,34.4Z"/></symbol><symbol id="share-google" viewBox="0 0 30 30"><title>share-google</title><path d="M5,20A5,5,0,0,1,5,10,5,5,0,0,1,5,20Zm0-8a3,3,0,0,0,0,6,3,3,0,0,0,0-6Z"/><path d="M25,10a5,5,0,0,1-5-5A5,5,0,0,1,30,5,5,5,0,0,1,25,10Zm0-8a3,3,0,0,0-3,3,3,3,0,0,0,6,0A3,3,0,0,0,25,2Z"/><path d="M25,30a5,5,0,1,1,5-5A5,5,0,0,1,25,30Zm0-8a3,3,0,1,0,3,3A2.95,2.95,0,0,0,25,22Z"/><path d="M9,15.89l12.88,6.44L21,24.11,8.11,17.67Z"/><path d="M21,5.89l.9,1.78L9,14.11l-.9-1.79Z"/></symbol><symbol id="skype" viewBox="0 0 27.9 27.8"><title>skype</title><path d="M26.9,16.2a19.42,19.42,0,0,0,.2-2.4,12.55,12.55,0,0,0-1-5.1,13.43,13.43,0,0,0-2.8-4.2,11.91,11.91,0,0,0-4.2-2.8A12.88,12.88,0,0,0,14,.7a21.05,21.05,0,0,0-2.5.2A7.79,7.79,0,0,0,7.8,0,7.47,7.47,0,0,0,2.3,2.3,7.64,7.64,0,0,0,0,7.8a7.46,7.46,0,0,0,1,3.8,16.41,16.41,0,0,0-.2,2.3,12.55,12.55,0,0,0,1,5.1,13.43,13.43,0,0,0,2.8,4.2A11.91,11.91,0,0,0,8.8,26a12.88,12.88,0,0,0,5.1,1,16.41,16.41,0,0,0,2.3-.2,7.56,7.56,0,0,0,3.9,1,7.47,7.47,0,0,0,5.5-2.3A7.64,7.64,0,0,0,27.9,20,7.46,7.46,0,0,0,26.9,16.2ZM14,21.9c-4.7,0-6.8-2.3-6.8-4a1.5,1.5,0,0,1,1.6-1.5c2,0,1.5,2.9,5.2,2.9,1.9,0,3-1,3-2.1,0-.6-.3-1.4-1.6-1.7l-4.2-1c-3.4-.8-4-2.7-4-4.4,0-3.6,3.3-4.9,6.5-4.9,2.9,0,6.3,1.6,6.3,3.7a1.51,1.51,0,0,1-1.7,1.4c-1.7,0-1.4-2.4-4.9-2.4-1.7,0-2.7.8-2.7,1.9s1.4,1.5,2.5,1.7l3.1.7c3.4.8,4.2,2.7,4.2,4.6C20.6,19.7,18.4,21.9,14,21.9Z"/></symbol><symbol id="star" viewBox="0 0 37.21 35.4"><title>star</title><path d="M7.74,35.4a1.42,1.42,0,0,1-.6-.2,1,1,0,0,1-.4-1.1l3.9-12L.44,14.6A1,1,0,0,1,0,13.5a1,1,0,0,1,1-.7h12.7L17.54.7a1,1,0,0,1,1-.7,1.09,1.09,0,0,1,1,.7l3.9,12.1h12.7a1.1,1.1,0,0,1,1,.6.84.84,0,0,1-.4,1.1l-10.2,7.4,3.9,12A1,1,0,0,1,30,35a1.05,1.05,0,0,1-1.2,0l-10.3-7.2L8.34,35.2A1.42,1.42,0,0,1,7.74,35.4Zm10.8-9.9a1.42,1.42,0,0,1,.6.2l8.3,6.1L24.24,22a1,1,0,0,1,.4-1.1l8.3-6.1H22.64a1.2,1.2,0,0,1-1-.7l-3.1-9.8-3.2,9.8a1,1,0,0,1-1,.7H4l8.3,6.1a1,1,0,0,1,.4,1.1l-3.1,9.8,8.3-6.1A1.42,1.42,0,0,1,18.54,25.5Z"/></symbol><symbol id="tag" viewBox="0 0 28.1 28"><title>tag</title><path d="M12.1,28a3.17,3.17,0,0,1-2.3-.9L.9,18.2a3.26,3.26,0,0,1,0-4.5L12.8,1.8A7.24,7.24,0,0,1,17.3,0h7.6a3.16,3.16,0,0,1,3.2,3.2v7.6a7.47,7.47,0,0,1-1.8,4.5L14.4,27.1A3.17,3.17,0,0,1,12.1,28ZM17.3,1.9a4.6,4.6,0,0,0-3,1.3L2.4,15.1a1.15,1.15,0,0,0,0,1.7l8.9,8.9a1.35,1.35,0,0,0,1.7,0L24.9,13.8a5.07,5.07,0,0,0,1.3-3V3.2A1.16,1.16,0,0,0,25,2H17.3Z"/><path d="M20.1,11.9a4,4,0,1,1,4-4A4,4,0,0,1,20.1,11.9Zm0-6a2,2,0,1,0,2,2A2,2,0,0,0,20.1,5.9Z"/></symbol><symbol id="trash" viewBox="0 0 26 32"><title>trash</title><path d="M8,10h2V26H8Z"/><path d="M12,10h2V26H12Z"/><path d="M16,10h2V26H16Z"/><path d="M0,4H26V6H0Z"/><path d="M18,4H16V3a.94.94,0,0,0-1-1H11a.94.94,0,0,0-1,1V4H8V3a3,3,0,0,1,3-3h4a3,3,0,0,1,3,3Z"/><path d="M19,32H7a3.32,3.32,0,0,1-3.2-2.9L2,5.1l2-.2,1.8,24A1.2,1.2,0,0,0,7,30H19a1.28,1.28,0,0,0,1.2-1.1L22,4.9l2,.2-1.8,24A3.32,3.32,0,0,1,19,32Z"/></symbol><symbol id="tumblr" viewBox="0 0 16 27.9"><title>tumblr</title><path d="M14.7,22.4a7.13,7.13,0,0,1-2.3.5c-2.2.1-2.7-1.6-2.7-2.8V11.4h5.6V7.2H9.8V0H5.7a.22.22,0,0,0-.2.2A8.46,8.46,0,0,1,0,7.7v3.6H2.8v9.1c0,3.1,2.3,7.6,8.4,7.5,2.1,0,4.3-.9,4.8-1.6Z"/></symbol><symbol id="twitter" viewBox="0 0 29.2 23.9"><title>twitter</title><path d="M29.2,2.7a12.92,12.92,0,0,1-3.5,1A6.75,6.75,0,0,0,28.4.4a13.68,13.68,0,0,1-3.8,1.5A6,6,0,0,0,20.2,0a6.12,6.12,0,0,0-6.1,6.1,6.75,6.75,0,0,0,.2,1.4A17.33,17.33,0,0,1,1.8,1.2,4.88,4.88,0,0,0,1,4,5.93,5.93,0,0,0,3.7,9,5,5,0,0,1,1,8.2v.1a6,6,0,0,0,4.9,5.9,7.77,7.77,0,0,1-1.6.2,3.75,3.75,0,0,1-1.1-.1,6,6,0,0,0,5.7,4.2,12.39,12.39,0,0,1-7.5,2.6A6.15,6.15,0,0,1,0,21a14.48,14.48,0,0,0,9,2.9c11.1,0,17.2-9.2,17.2-17.2V5.9A11.45,11.45,0,0,0,29.2,2.7Z"/></symbol><symbol id="undo" viewBox="0 0 26 26"><title>undo</title><path d="M13,26A13,13,0,0,1,1.2,18.4L3,17.6A11,11,0,1,0,13,2,10.59,10.59,0,0,0,2.9,9.3L1,8.6A12.77,12.77,0,0,1,13,0a13,13,0,0,1,0,26Z"/><path d="M8,10H0V2H2V8H8Z"/></symbol><symbol id="unlock" viewBox="0 0 22 30"><title>unlock</title><path d="M4,13H2V9A9,9,0,0,1,19.9,7.9l-2,.2A7,7,0,0,0,4,9Z"/><path d="M19,30H3a3,3,0,0,1-3-3V15a3,3,0,0,1,3-3H19a3,3,0,0,1,3,3V27A3,3,0,0,1,19,30ZM3,14a.94.94,0,0,0-1,1V27a.94.94,0,0,0,1,1H19a.94.94,0,0,0,1-1V15a.94.94,0,0,0-1-1Z"/><circle cx="11" cy="18" r="2"/><path d="M11.5,18h-1l-1,6h3Z"/></symbol><symbol id="user" viewBox="0 0 34 34"><title>user</title><path d="M17,34A17,17,0,1,1,34,17,17,17,0,0,1,17,34ZM17,2A15,15,0,1,0,32,17,15,15,0,0,0,17,2Z"/><path d="M7.2,29.3l-1.8-.8c.5-1.2,2.1-1.9,3.8-2.7S13,24.1,13,23V21.5a5.11,5.11,0,0,1-1.8-3.2,3.81,3.81,0,0,1-1.3-2.6,3.8,3.8,0,0,1,.5-1.7,16.88,16.88,0,0,1-.4-3.5C10,6.6,12.7,4,17,4a4.83,4.83,0,0,1,3.5,1.2c1.9.4,3.5,2.6,3.5,5.3a14.43,14.43,0,0,1-.5,3.8,2.59,2.59,0,0,1,.4,1.4,3.12,3.12,0,0,1-1.3,2.6,4.78,4.78,0,0,1-1.7,3.1V23c0,.9,1.8,1.6,3.4,2.2,1.9.7,3.9,1.5,4.6,3.1L27,29c-.3-.8-1.9-1.4-3.4-1.9-2.2-.8-4.7-1.7-4.7-4V20.5l.5-.3a3,3,0,0,0,1.2-2.4v-.7l.6-.3c.1,0,.6-.3.6-1.1a1.14,1.14,0,0,0-.3-.6l-.4-.4.2-.5a13.4,13.4,0,0,0,.5-3.6c0-1.9-1.1-3.3-2-3.3h-.6l-.3-.5c0-.4-.7-.8-1.9-.8-3.1,0-5,1.7-5,4.5a21,21,0,0,0,.5,3.5l.1.5-.4.5c-.1,0-.3.3-.3.7a2.07,2.07,0,0,0,.9,1.3l.4.3v.5a3.45,3.45,0,0,0,1.3,2.4l.5.3v2.6c0,2.4-2.6,3.6-5,4.6C8.9,28.1,7.4,28.8,7.2,29.3Z"/></symbol><symbol id="vimeo" viewBox="0 0 27.72 24.1"><title>vimeo</title><path d="M27.7,5.6c-.1,2.7-2,6.4-5.6,11.1-3.8,4.9-7,7.4-9.6,7.4-1.6,0-3-1.5-4.1-4.5-.7-2.7-1.5-5.5-2.2-8.2Q5,6.9,3.5,6.9A8.45,8.45,0,0,0,1.3,8.2L0,6.5C1.4,5.3,2.7,4.1,4,2.9,5.8,1.3,7.2.5,8.1.4c2.2-.2,3.5,1.3,4,4.4.5,3.4.9,5.5,1.1,6.4q.9,4.2,2.1,4.2c.6,0,1.5-.9,2.6-2.8a10.28,10.28,0,0,0,1.9-4.2C20,6.8,19.3,6,17.9,6a4.92,4.92,0,0,0-2,.5C17.3,2,19.9-.1,23.7,0,26.5.1,27.9,1.9,27.7,5.6Z"/></symbol><symbol id="youtube" viewBox="0 0 30 21"><title>youtube</title><path d="M29.7,4.6a6.54,6.54,0,0,0-1.2-3,4.38,4.38,0,0,0-3-1.3C21.3,0,15,0,15,0S8.7,0,4.5.3a4.38,4.38,0,0,0-3,1.3,6.54,6.54,0,0,0-1.2,3A44.35,44.35,0,0,0,0,9.4v2.2a47.47,47.47,0,0,0,.3,4.9,6.54,6.54,0,0,0,1.2,3,4.83,4.83,0,0,0,3.3,1.3c2.4.1,10.2.2,10.2.2s6.3,0,10.5-.3a4.38,4.38,0,0,0,3-1.3,6.54,6.54,0,0,0,1.2-3,44.35,44.35,0,0,0,.3-4.8V9.4A44.35,44.35,0,0,0,29.7,4.6ZM11.9,14.4V6L20,10.2Z"/></symbol></svg>