<svg id="Layer_1" data-name="Layer 1" xmlns="http://www.w3.org/2000/svg" viewBox="0 0 26 26"><defs><style>.cls-1{fill:#231f20;fill-rule:evenodd;}</style></defs><title>instagram</title><path class="cls-1" d="M23,11H20.7a6.45,6.45,0,0,1,.3,2A8,8,0,0,1,5,13a6.45,6.45,0,0,1,.3-2H3V22a.94.94,0,0,0,1,1H22a.94.94,0,0,0,1-1Zm0-7a.94.94,0,0,0-1-1H19a.94.94,0,0,0-1,1V7a.94.94,0,0,0,1,1h3a.94.94,0,0,0,1-1ZM13,8a5,5,0,1,0,5,5,5,5,0,0,0-5-5M23,26H3a3,3,0,0,1-3-3V3A3,3,0,0,1,3,0H23a3,3,0,0,1,3,3V23a3,3,0,0,1-3,3"/></svg>