<svg id="Layer_1" data-name="Layer 1" xmlns="http://www.w3.org/2000/svg" viewBox="0 0 30 30"><title>pinterest</title><path d="M15,0A15,15,0,0,0,9.5,29a15.58,15.58,0,0,1,.1-4.3c.3-1.2,1.8-7.5,1.8-7.5A5.91,5.91,0,0,1,11,15c0-2.1,1.2-3.6,2.7-3.6a1.89,1.89,0,0,1,1.9,2.1c0,1.3-.8,3.2-1.2,5a2.12,2.12,0,0,0,2.2,2.7c2.7,0,4.7-2.8,4.7-6.9A5.93,5.93,0,0,0,15,8.2a6.49,6.49,0,0,0-6.8,6.5,5.74,5.74,0,0,0,1.1,3.4.6.6,0,0,1,.1.4C9.3,19,9,20,9,20.2s-.2.3-.5.2c-1.9-.9-3-3.6-3-5.8,0-4.7,3.4-9.1,9.9-9.1,5.2,0,9.2,3.7,9.2,8.7,0,5.2-3.3,9.3-7.8,9.3a4,4,0,0,1-3.4-1.7s-.8,2.9-.9,3.6a15.71,15.71,0,0,1-1.9,3.9A13.08,13.08,0,0,0,15,30,15,15,0,0,0,15,0Z"/></svg>