<svg id="Layer_1" data-name="Layer 1" xmlns="http://www.w3.org/2000/svg" viewBox="0 0 28.1 28"><title>tag</title><path d="M12.1,28a3.17,3.17,0,0,1-2.3-.9L.9,18.2a3.26,3.26,0,0,1,0-4.5L12.8,1.8A7.24,7.24,0,0,1,17.3,0h7.6a3.16,3.16,0,0,1,3.2,3.2v7.6a7.47,7.47,0,0,1-1.8,4.5L14.4,27.1A3.17,3.17,0,0,1,12.1,28ZM17.3,1.9a4.6,4.6,0,0,0-3,1.3L2.4,15.1a1.15,1.15,0,0,0,0,1.7l8.9,8.9a1.35,1.35,0,0,0,1.7,0L24.9,13.8a5.07,5.07,0,0,0,1.3-3V3.2A1.16,1.16,0,0,0,25,2H17.3Z"/><path d="M20.1,11.9a4,4,0,1,1,4-4A4,4,0,0,1,20.1,11.9Zm0-6a2,2,0,1,0,2,2A2,2,0,0,0,20.1,5.9Z"/></svg>