<svg id="Layer_1" data-name="Layer 1" xmlns="http://www.w3.org/2000/svg" viewBox="0 0 34 34"><title>user</title><path d="M17,34A17,17,0,1,1,34,17,17,17,0,0,1,17,34ZM17,2A15,15,0,1,0,32,17,15,15,0,0,0,17,2Z"/><path d="M7.2,29.3l-1.8-.8c.5-1.2,2.1-1.9,3.8-2.7S13,24.1,13,23V21.5a5.11,5.11,0,0,1-1.8-3.2,3.81,3.81,0,0,1-1.3-2.6,3.8,3.8,0,0,1,.5-1.7,16.88,16.88,0,0,1-.4-3.5C10,6.6,12.7,4,17,4a4.83,4.83,0,0,1,3.5,1.2c1.9.4,3.5,2.6,3.5,5.3a14.43,14.43,0,0,1-.5,3.8,2.59,2.59,0,0,1,.4,1.4,3.12,3.12,0,0,1-1.3,2.6,4.78,4.78,0,0,1-1.7,3.1V23c0,.9,1.8,1.6,3.4,2.2,1.9.7,3.9,1.5,4.6,3.1L27,29c-.3-.8-1.9-1.4-3.4-1.9-2.2-.8-4.7-1.7-4.7-4V20.5l.5-.3a3,3,0,0,0,1.2-2.4v-.7l.6-.3c.1,0,.6-.3.6-1.1a1.14,1.14,0,0,0-.3-.6l-.4-.4.2-.5a13.4,13.4,0,0,0,.5-3.6c0-1.9-1.1-3.3-2-3.3h-.6l-.3-.5c0-.4-.7-.8-1.9-.8-3.1,0-5,1.7-5,4.5a21,21,0,0,0,.5,3.5l.1.5-.4.5c-.1,0-.3.3-.3.7a2.07,2.07,0,0,0,.9,1.3l.4.3v.5a3.45,3.45,0,0,0,1.3,2.4l.5.3v2.6c0,2.4-2.6,3.6-5,4.6C8.9,28.1,7.4,28.8,7.2,29.3Z"/></svg>