<svg id="Layer_1" data-name="Layer 1" xmlns="http://www.w3.org/2000/svg" viewBox="0 0 34 26"><title>credit-card</title><path d="M31,26H3a3,3,0,0,1-3-3V3A3,3,0,0,1,3,0H31a3,3,0,0,1,3,3V23A3,3,0,0,1,31,26ZM3,2A.94.94,0,0,0,2,3V23a.94.94,0,0,0,1,1H31a.94.94,0,0,0,1-1V3a.94.94,0,0,0-1-1Z"/><path d="M1,4H33v6H1Z"/><path d="M4,14H5v2H4Z"/><path d="M6,14H7v2H6Z"/><path d="M8,14H9v2H8Z"/><path d="M11,14h1v2H11Z"/><path d="M13,14h1v2H13Z"/><path d="M15,14h1v2H15Z"/><path d="M18,14h1v2H18Z"/><path d="M20,14h1v2H20Z"/><path d="M22,14h1v2H22Z"/><path d="M25,14h1v2H25Z"/><path d="M27,14h1v2H27Z"/><path d="M29,14h1v2H29Z"/></svg>