<svg id="Layer_1" data-name="Layer 1" xmlns="http://www.w3.org/2000/svg" viewBox="0 0 37.9 38"><title>gear</title><path d="M19,28a9,9,0,1,1,9-9A9,9,0,0,1,19,28Zm0-16a7,7,0,1,0,7,7A7,7,0,0,0,19,12Z"/><path d="M21.7,38H16.3l-1.5-4.6a14.76,14.76,0,0,1-2.9-1.2L7.5,34.4,3.7,30.6l2.2-4.4a14.76,14.76,0,0,1-1.2-2.9L0,21.7V16.3l4.6-1.5a14.76,14.76,0,0,1,1.2-2.9L3.6,7.5,7.4,3.7l4.4,2.2a14.76,14.76,0,0,1,2.9-1.2L16.3,0h5.4l1.5,4.6a14.76,14.76,0,0,1,2.9,1.2l4.4-2.2,3.8,3.8-2.2,4.4a14.76,14.76,0,0,1,1.2,2.9l4.6,1.5v5.4l-4.6,1.5A14.76,14.76,0,0,1,32.1,26l2.2,4.4-3.8,3.8L26.1,32a14.76,14.76,0,0,1-2.9,1.2Zm-4-2h2.6l1.4-4.3.5-.1a14.34,14.34,0,0,0,3.4-1.4l.5-.3,4,2,1.8-1.8-2-4,.3-.5a12.81,12.81,0,0,0,1.4-3.4l.1-.5L36,20.3V17.7l-4.3-1.4-.1-.5a14.34,14.34,0,0,0-1.4-3.4l-.3-.5,2-4L30.1,6.1l-4,2-.5-.3a14.34,14.34,0,0,0-3.4-1.4l-.5-.1L20.3,2H17.7L16.3,6.3l-.5.1a14.34,14.34,0,0,0-3.4,1.4l-.5.3-4-2L6.1,7.9l2,4-.3.5a12.81,12.81,0,0,0-1.4,3.4l-.1.5L2,17.7v2.6l4.3,1.4.1.5a14.34,14.34,0,0,0,1.4,3.4l.3.5-2,4,1.8,1.8,4-2,.5.3a14.34,14.34,0,0,0,3.4,1.4l.5.1Z"/></svg>