<svg id="Layer_1" data-name="Layer 1" xmlns="http://www.w3.org/2000/svg" viewBox="0 0 29.8 29.8"><title>link</title><path d="M13.9,20.1c0,.2.1.5.1.8a4.91,4.91,0,0,1-1.5,3.6l-2,2A4.91,4.91,0,0,1,6.9,28a5.12,5.12,0,0,1-5.1-5.1,4.91,4.91,0,0,1,1.5-3.6l2-2a4.91,4.91,0,0,1,3.6-1.5,2.2,2.2,0,0,1,.8.1l1.5-1.5A5.87,5.87,0,0,0,8.9,14,6.8,6.8,0,0,0,4,16L2,18a6.8,6.8,0,0,0-2,4.9,6.91,6.91,0,0,0,6.9,6.9,6.8,6.8,0,0,0,4.9-2l2-2a6.8,6.8,0,0,0,2-4.9,5.87,5.87,0,0,0-.4-2.3Z"/><path d="M22.9,0A6.8,6.8,0,0,0,18,2L16,4a6.8,6.8,0,0,0-2,4.9,5.87,5.87,0,0,0,.4,2.3l1.5-1.5c0-.2-.1-.5-.1-.8a4.91,4.91,0,0,1,1.5-3.6l2-2a4.91,4.91,0,0,1,3.6-1.5A5.12,5.12,0,0,1,28,6.9a4.91,4.91,0,0,1-1.5,3.6l-2,2A4.91,4.91,0,0,1,20.9,14a2.2,2.2,0,0,1-.8-.1l-1.5,1.5a5.87,5.87,0,0,0,2.3.4,6.8,6.8,0,0,0,4.9-2l2-2a6.8,6.8,0,0,0,2-4.9A6.91,6.91,0,0,0,22.9,0Z"/><path d="M9.9,20.9a.91.91,0,0,1-.7-.3,1,1,0,0,1,0-1.4l10-10a1,1,0,0,1,1.4,1.4l-10,10A.91.91,0,0,1,9.9,20.9Z"/></svg>