<svg id="Layer_1" data-name="Layer 1" xmlns="http://www.w3.org/2000/svg" viewBox="0 0 30 30"><title>share-google</title><path d="M5,20A5,5,0,0,1,5,10,5,5,0,0,1,5,20Zm0-8a3,3,0,0,0,0,6,3,3,0,0,0,0-6Z"/><path d="M25,10a5,5,0,0,1-5-5A5,5,0,0,1,30,5,5,5,0,0,1,25,10Zm0-8a3,3,0,0,0-3,3,3,3,0,0,0,6,0A3,3,0,0,0,25,2Z"/><path d="M25,30a5,5,0,1,1,5-5A5,5,0,0,1,25,30Zm0-8a3,3,0,1,0,3,3A2.95,2.95,0,0,0,25,22Z"/><path d="M9,15.89l12.88,6.44L21,24.11,8.11,17.67Z"/><path d="M21,5.89l.9,1.78L9,14.11l-.9-1.79Z"/></svg>