<svg id="Layer_1" data-name="Layer 1" xmlns="http://www.w3.org/2000/svg" viewBox="0 0 30 30"><title>calendar</title><path d="M27,30H3a3,3,0,0,1-3-3V5A2.74,2.74,0,0,1,2.5,2H4V4H2.5C2.3,4,2,4.4,2,5V27a.94.94,0,0,0,1,1H27a.94.94,0,0,0,1-1V5c0-.6-.3-1-.5-1H26V2h1.5A2.74,2.74,0,0,1,30,5V27A3,3,0,0,1,27,30Z"/><path d="M7,6A.94.94,0,0,1,6,5V1A.94.94,0,0,1,7,0,.94.94,0,0,1,8,1V5A.94.94,0,0,1,7,6Z"/><path d="M23,6a.94.94,0,0,1-1-1V1a1,1,0,0,1,2,0V5A.94.94,0,0,1,23,6Z"/><path d="M10,2H20V4H10Z"/><path d="M2,8H28v2H2Z"/><path d="M24,12h2v2H24Z"/><path d="M20,12h2v2H20Z"/><path d="M16,12h2v2H16Z"/><path d="M12,12h2v2H12Z"/><path d="M8,12h2v2H8Z"/><path d="M24,16h2v2H24Z"/><path d="M20,16h2v2H20Z"/><path d="M16,16h2v2H16Z"/><path d="M12,16h2v2H12Z"/><path d="M8,16h2v2H8Z"/><path d="M4,16H6v2H4Z"/><path d="M24,20h2v2H24Z"/><path d="M20,20h2v2H20Z"/><path d="M16,20h2v2H16Z"/><path d="M12,20h2v2H12Z"/><path d="M8,20h2v2H8Z"/><path d="M4,20H6v2H4Z"/><path d="M20,24h2v2H20Z"/><path d="M16,24h2v2H16Z"/><path d="M12,24h2v2H12Z"/><path d="M8,24h2v2H8Z"/><path d="M4,24H6v2H4Z"/></svg>