<svg id="Layer_1" data-name="Layer 1" xmlns="http://www.w3.org/2000/svg" viewBox="0 0 34 27.9"><title>camera</title><path d="M31,27.9H3a3,3,0,0,1-3-3V6.9a3,3,0,0,1,3-3H9a1.14,1.14,0,0,0,.6-.3l1.1-2.2A2.74,2.74,0,0,1,13,0h8a2.74,2.74,0,0,1,2.3,1.4l1.1,2.2a.71.71,0,0,0,.6.3h6a3,3,0,0,1,3,3v18A3,3,0,0,1,31,27.9ZM3,5.9a.94.94,0,0,0-1,1v18a.94.94,0,0,0,1,1H31a.94.94,0,0,0,1-1V6.9a.94.94,0,0,0-1-1H25a2.74,2.74,0,0,1-2.3-1.4L21.6,2.3a.82.82,0,0,0-.6-.4H13a1.14,1.14,0,0,0-.6.3L11.3,4.4A2.64,2.64,0,0,1,9,5.9Z"/><path d="M17,23.9a9,9,0,1,1,9-9A9,9,0,0,1,17,23.9Zm0-16a7,7,0,1,0,7,7A7,7,0,0,0,17,7.9Z"/><circle cx="27" cy="7.9" r="1"/><path d="M4,1.9H8v1H4Z"/><path d="M17,10.9v-1a5,5,0,0,0-5,5h1A4,4,0,0,1,17,10.9Z"/></svg>