<svg id="Layer_1" data-name="Layer 1" xmlns="http://www.w3.org/2000/svg" viewBox="0 0 34 26"><defs><style>.cls-1{opacity:0.9;isolation:isolate;}</style></defs><title>envelope</title><path class="cls-1" d="M23.8,12.24l10,10-1.42,1.42-10-10Z"/><path class="cls-1" d="M10.28,12.29l1.41,1.41-9.9,9.9L.38,22.19Z"/><path d="M17,17.9a5.76,5.76,0,0,1-4.2-1.8L.3,3.7,1.7,2.3,14.2,14.8a4,4,0,0,0,5.7,0L32.4,2.3l1.4,1.4L21.2,16.2A6.07,6.07,0,0,1,17,17.9Z"/><path d="M31,26H3a3,3,0,0,1-3-3V3A3,3,0,0,1,3,0H31a3,3,0,0,1,3,3V23A3,3,0,0,1,31,26ZM3,2A.94.94,0,0,0,2,3V23a.94.94,0,0,0,1,1H31a.94.94,0,0,0,1-1V3a.94.94,0,0,0-1-1Z"/></svg>