<svg id="Layer_1" data-name="Layer 1" xmlns="http://www.w3.org/2000/svg" viewBox="0 0 33.95 22"><title>eye</title><path d="M17,22C5.47,22,.28,11.9.08,11.4a1.27,1.27,0,0,1,0-.9C.28,10.1,5.47,0,17,0S33.68,10.1,33.88,10.6a1.53,1.53,0,0,1,0,.9C33.68,11.9,28.47,22,17,22ZM2.08,11C3.18,12.9,8,20,17,20s13.71-7.1,14.91-9C30.78,9.1,26,2,17,2S3.28,9.1,2.08,11Z"/><path d="M17,20a9,9,0,1,1,9-9A9,9,0,0,1,17,20ZM17,4a7,7,0,1,0,7,7A7,7,0,0,0,17,4Z"/><path d="M17,16a5,5,0,0,1-5-5,1,1,0,0,1,2,0,3,3,0,0,0,6,0,2.94,2.94,0,0,0-3-3,.94.94,0,0,1-1-1,.94.94,0,0,1,1-1,5,5,0,0,1,0,10Z"/></svg>