<svg id="Layer_1" data-name="Layer 1" xmlns="http://www.w3.org/2000/svg" viewBox="0 0 32 30"><title>like</title><path d="M32,15.2c0-2.1-1.7-3.2-4-3.2H21.3A18.76,18.76,0,0,0,22,7c0-5.8-1.6-7-3-7a4.62,4.62,0,0,0-2.5.6,1.16,1.16,0,0,0-.5.7L15,6.7c-1.1,2.8-3.8,5.3-6,7V28a6.22,6.22,0,0,1,2.6.9A8.5,8.5,0,0,0,15,30h9.5A3.42,3.42,0,0,0,28,27a1.48,1.48,0,0,0-.1-.7A3.1,3.1,0,0,0,30,23.5a4.15,4.15,0,0,0-.3-1.6,3,3,0,0,0,1.5-2.4,3.49,3.49,0,0,0-.6-1.7A3.42,3.42,0,0,0,32,15.2Zm-2.1,0c0,1.3-1.3,1.4-1.5,2s.8.9.8,2.1-1.5,1.2-1.7,1.9.5,1,.5,2.2v.2c-.2,1-1.7,1.1-2,1.5s0,.7,0,1.8c0,.6-.7,1-1.5,1H15a6.22,6.22,0,0,1-2.6-.9A12.23,12.23,0,0,0,10,26V15.5c2.5-1.9,5.7-4.7,6.9-8.2V7.1l.9-5A4.48,4.48,0,0,1,19,2c.2,0,1,1.2,1,5a19.84,19.84,0,0,1-.8,5H19a1,1,0,0,0,0,2h9C29,14,29.9,14.5,29.9,15.2Z"/><path d="M8,30H2a2,2,0,0,1-2-2V14a2,2,0,0,1,2-2H8a2,2,0,0,1,2,2V28A2,2,0,0,1,8,30ZM2,14V28H8V14Z"/></svg>