<svg id="Layer_1" data-name="Layer 1" xmlns="http://www.w3.org/2000/svg" viewBox="0 0 34 34"><title>question</title><path d="M17,34A17,17,0,1,1,34,17,17,17,0,0,1,17,34ZM17,2A15,15,0,1,0,32,17,15,15,0,0,0,17,2Z"/><path d="M11.8,11.6A4.14,4.14,0,0,1,13,9.7a5.16,5.16,0,0,1,1.9-1.2,6.9,6.9,0,0,1,2.5-.4,6.45,6.45,0,0,1,2,.3,5.56,5.56,0,0,1,1.7.9,3.27,3.27,0,0,1,1.1,1.5,4.48,4.48,0,0,1,.4,2,4.87,4.87,0,0,1-.6,2.5,14,14,0,0,1-1.6,2l-1.3,1.3a2.76,2.76,0,0,0-.7.9,2,2,0,0,0-.3,1.1,5.76,5.76,0,0,0-.1,1.5H16.4a8.62,8.62,0,0,1,.1-1.7,8.8,8.8,0,0,1,.5-1.5,4.7,4.7,0,0,1,.9-1.2,18.37,18.37,0,0,0,1.4-1.4,7.89,7.89,0,0,0,1.2-1.5A3.74,3.74,0,0,0,21,13a3.19,3.19,0,0,0-.3-1.4,4.44,4.44,0,0,0-.8-1.1,3.46,3.46,0,0,0-1.2-.7,3.53,3.53,0,0,0-1.4-.3,3.42,3.42,0,0,0-1.8.4,3.25,3.25,0,0,0-1.3,1,5.3,5.3,0,0,0-.8,1.5A4.19,4.19,0,0,0,13,14H11.4A6.37,6.37,0,0,1,11.8,11.6ZM18,24v2H16V24Z"/></svg>