<svg id="Layer_1" data-name="Layer 1" xmlns="http://www.w3.org/2000/svg" viewBox="0 0 37.21 35.4"><title>star</title><path d="M7.74,35.4a1.42,1.42,0,0,1-.6-.2,1,1,0,0,1-.4-1.1l3.9-12L.44,14.6A1,1,0,0,1,0,13.5a1,1,0,0,1,1-.7h12.7L17.54.7a1,1,0,0,1,1-.7,1.09,1.09,0,0,1,1,.7l3.9,12.1h12.7a1.1,1.1,0,0,1,1,.6.84.84,0,0,1-.4,1.1l-10.2,7.4,3.9,12A1,1,0,0,1,30,35a1.05,1.05,0,0,1-1.2,0l-10.3-7.2L8.34,35.2A1.42,1.42,0,0,1,7.74,35.4Zm10.8-9.9a1.42,1.42,0,0,1,.6.2l8.3,6.1L24.24,22a1,1,0,0,1,.4-1.1l8.3-6.1H22.64a1.2,1.2,0,0,1-1-.7l-3.1-9.8-3.2,9.8a1,1,0,0,1-1,.7H4l8.3,6.1a1,1,0,0,1,.4,1.1l-3.1,9.8,8.3-6.1A1.42,1.42,0,0,1,18.54,25.5Z"/></svg>