<svg id="Layer_1" data-name="Layer 1" xmlns="http://www.w3.org/2000/svg" viewBox="0 0 27.72 24.1"><title>vimeo</title><path d="M27.7,5.6c-.1,2.7-2,6.4-5.6,11.1-3.8,4.9-7,7.4-9.6,7.4-1.6,0-3-1.5-4.1-4.5-.7-2.7-1.5-5.5-2.2-8.2Q5,6.9,3.5,6.9A8.45,8.45,0,0,0,1.3,8.2L0,6.5C1.4,5.3,2.7,4.1,4,2.9,5.8,1.3,7.2.5,8.1.4c2.2-.2,3.5,1.3,4,4.4.5,3.4.9,5.5,1.1,6.4q.9,4.2,2.1,4.2c.6,0,1.5-.9,2.6-2.8a10.28,10.28,0,0,0,1.9-4.2C20,6.8,19.3,6,17.9,6a4.92,4.92,0,0,0-2,.5C17.3,2,19.9-.1,23.7,0,26.5.1,27.9,1.9,27.7,5.6Z"/></svg>